<svg width="24" height="24" viewBox="0 0 24 24" fill="none" xmlns="http://www.w3.org/2000/svg">
<path d="M18.8057 3.5L21.4082 8.77246L21.3516 8.8418L21.0166 8.16406L18.8906 3.85547L18.7529 3.57715H13.6328L13.9893 4.29883L16.1152 8.60645L16.2529 8.88574H21.3164L12 20.2129L2.68359 8.88574H7.74707L7.88477 8.60645L10.0107 4.29883L10.3672 3.57715H5.24707L5.10938 3.85547L2.9834 8.16406L2.64746 8.8418L2.59082 8.77246L5.19434 3.5H18.8057ZM3.52344 9.7793L11.082 18.999L11.9688 20.0811V8.96289H2.85352L3.52344 9.7793ZM12.0312 20.0811L12.918 18.999L20.4766 9.7793L21.1465 8.96289H12.0312V20.0811ZM10.2939 3.85547L8.16699 8.16406L7.81055 8.88574H16.1895L15.833 8.16406L13.7061 3.85547L13.5684 3.57715H10.4316L10.2939 3.85547Z" fill="black" stroke="white"/>
</svg>
