<svg width="26" height="29" viewBox="0 0 26 29" fill="none" xmlns="http://www.w3.org/2000/svg">
<path d="M9.28242 11.3502L0.133056 27.3793C-0.247469 28.0459 0.233922 28.875 1.00153 28.875H5.40263C5.7612 28.875 6.09233 28.683 6.27048 28.3718L15.9819 11.4081C16.0015 11.3738 16.0307 11.3413 16.0307 11.3019C16.0307 11.2624 16.0015 11.2298 15.982 11.1956L9.63692 0.0451183C9.61113 1.14366e-06 9.58535 0 9.53379 0H4.60733C3.84052 0 3.35903 0.827511 3.73795 1.49415L9.26586 11.2195C9.28117 11.2464 9.29735 11.2749 9.29515 11.3058C9.29404 11.3213 9.2897 11.3364 9.28242 11.3502ZM15.2636 16.8804C15.2209 16.9599 15.2283 17.0424 15.273 17.1208L19.002 23.6543C19.0146 23.6767 19.0336 23.6947 19.0566 23.7062C19.0795 23.7177 19.1054 23.7221 19.1309 23.7188H23.606C24.3714 23.7188 24.8531 22.894 24.477 22.2274L21.5221 16.9898C21.5055 16.9588 21.5249 16.9229 21.543 16.8927L25.8259 9.76506C26.2264 9.09854 25.7464 8.25 24.9688 8.25H20.4973C20.4761 8.24732 20.4547 8.25151 20.4361 8.26196C20.4175 8.27241 20.4028 8.28855 20.3941 8.30801L15.5838 16.3111C15.5334 16.3949 15.4857 16.4818 15.4379 16.5671C15.385 16.6613 15.3133 16.7878 15.2636 16.8804Z" fill="white"/>
</svg>
