<svg width="20" height="20" viewBox="0 0 20 20" fill="none" xmlns="http://www.w3.org/2000/svg">
<g clip-path="url(#clip0_455_4243)">
<path d="M13.8588 2.41667C13.203 1.86085 12.5155 1.27667 11.8155 0.639988C11.2785 0.151629 10.5533 -0.0746992 9.83381 0.021668C9.13662 0.113777 8.51631 0.510613 8.14049 1.10499C7.14713 2.76499 6.44479 4.58253 6.06381 6.47917C5.91432 6.26331 5.7817 6.03628 5.66713 5.79999C5.27244 4.96843 4.27838 4.61425 3.44682 5.00893C3.24549 5.10448 3.06537 5.23944 2.91713 5.40581C1.51936 6.83417 0.744476 8.75819 0.762132 10.7566C0.722406 14.9571 3.54784 18.645 7.61381 19.7C8.37034 19.8903 9.14705 19.9888 9.92713 19.9933C9.95213 19.9933 10.218 19.9908 10.3255 19.9833C15.3005 19.8222 19.2483 15.7392 19.2421 10.7616C19.2388 6.98667 16.7455 4.86999 13.8588 2.41667ZM9.90631 18.3208C9.28612 18.2736 8.67323 18.0224 8.21049 17.6491C7.48588 17.1364 7.00639 16.3845 6.89217 15.5183C6.75049 14.1666 7.58385 12.3991 9.28635 10.4025C9.46487 10.194 9.72604 10.0745 10.0005 10.0758C10.2715 10.0739 10.5291 10.193 10.703 10.4008C12.263 12.2525 13.1197 13.9608 13.1197 15.2116C13.1149 16.855 11.8304 18.155 10.1947 18.3133C10.1229 18.3203 10.0005 18.3308 9.90631 18.3208ZM14.6472 16.7358C14.598 16.7741 14.5439 16.805 14.4939 16.8416C14.6861 16.3191 14.7851 15.7668 14.7864 15.2099C14.7864 13.1041 13.2572 10.8474 11.9755 9.32495C11.4852 8.74421 10.7639 8.40889 10.0039 8.40827H10.0005C9.23889 8.4069 8.51502 8.73991 8.02049 9.31909C5.98299 11.7058 5.04717 13.8499 5.23881 15.6924C5.28432 16.1201 5.39358 16.5387 5.56299 16.9341C3.58416 15.5003 2.41819 13.2002 2.43131 10.7566C2.41522 9.16913 3.04123 7.64249 4.16713 6.52327C4.35936 6.92288 4.59018 7.30272 4.85631 7.65745C5.22182 8.15159 5.84623 8.38089 6.44463 8.24077C7.05475 8.10581 7.52846 7.6246 7.65381 7.01245C7.98862 5.24276 8.62842 3.54471 9.54463 1.99413C9.65737 1.81686 9.84358 1.69944 10.0521 1.67413C10.2852 1.64276 10.5202 1.71632 10.6938 1.87495C11.4088 2.52495 12.1105 3.12495 12.7771 3.68913C15.5588 6.05163 17.5696 7.75831 17.5696 10.7616C17.5768 13.0989 16.4979 15.3069 14.6496 16.7374L14.6472 16.7358Z" fill="white"/>
</g>
<defs>
<clipPath id="clip0_455_4243">
<rect width="20" height="20" fill="white"/>
</clipPath>
</defs>
</svg>
