<svg width="24" height="24" viewBox="0 0 24 24" fill="none" xmlns="http://www.w3.org/2000/svg">
<path d="M8 3.99994H5C4.46957 3.99994 3.96086 4.21065 3.58579 4.58573C3.21071 4.9608 3 5.46951 3 5.99994V6.99994M8 19.9999H5C4.46957 19.9999 3.96086 19.7892 3.58579 19.4142C3.21071 19.0391 3 18.5304 3 17.9999V16.9999M2.999 11.9999H7.999M7.999 11.9999L5.999 9.99994M7.999 11.9999L5.999 13.9999M19.575 19.4279L13.575 21.2279C13.2763 21.3176 12.9608 21.3362 12.6537 21.2822C12.3465 21.2282 12.0563 21.1031 11.8061 20.9169C11.5559 20.7308 11.3527 20.4887 11.2128 20.21C11.0728 19.9313 10.9999 19.6238 11 19.3119V4.68794C10.9999 4.37609 11.0728 4.06855 11.2128 3.78987C11.3527 3.5112 11.5559 3.26911 11.8061 3.08295C12.0563 2.89679 12.3465 2.77172 12.6537 2.71771C12.9608 2.66371 13.2763 2.68228 13.575 2.77194L19.575 4.57194C19.987 4.6956 20.3481 4.9488 20.6048 5.29394C20.8615 5.63909 21.0001 6.0578 21 6.48794V17.5119C21.0001 17.9421 20.8615 18.3608 20.6048 18.7059C20.3481 19.0511 19.987 19.3043 19.575 19.4279Z" stroke="white" stroke-width="2" stroke-linecap="round" stroke-linejoin="round"/>
</svg>
