<svg width="24" height="24" viewBox="0 0 24 24" fill="none" xmlns="http://www.w3.org/2000/svg">
<path d="M16.8794 3.25199C16.8791 3.58377 16.7471 3.90186 16.5123 4.13633L10.1117 10.5369C9.918 10.7306 9.76432 10.9606 9.65947 11.2136C9.55462 11.4667 9.50065 11.738 9.50065 12.0119C9.50065 12.2859 9.55462 12.5571 9.65947 12.8102C9.76432 13.0633 9.918 13.2933 10.1117 13.4869L16.504 19.8792C16.732 20.1152 16.8581 20.4313 16.8552 20.7595C16.8524 21.0876 16.7208 21.4014 16.4888 21.6335C16.2567 21.8655 15.9429 21.9971 15.6147 22C15.2866 22.0028 14.9705 21.8767 14.7345 21.6487L8.34223 15.2615C7.48272 14.4003 7 13.2332 7 12.0165C7 10.7998 7.48272 9.63279 8.34223 8.77159L14.7428 2.36682C14.9178 2.19169 15.1409 2.07241 15.3837 2.02408C15.6265 1.97574 15.8782 2.00053 16.107 2.09529C16.3357 2.19005 16.5312 2.35054 16.6687 2.55644C16.8062 2.76234 16.8795 3.0044 16.8794 3.25199Z" fill="white"/>
</svg>
